<?xml version="1.0" standalone="no"?>
<!DOCTYPE svg PUBLIC "-//W3C//DTD SVG 20010904//EN"
 "http://www.w3.org/TR/2001/REC-SVG-20010904/DTD/svg10.dtd">
<svg version="1.0" xmlns="http://www.w3.org/2000/svg"
 width="944.000000pt" height="923.000000pt" viewBox="0 0 944.000000 923.000000"
 preserveAspectRatio="xMidYMid meet">

<g transform="translate(0.000000,923.000000) scale(0.100000,-0.100000)"
fill="#000000" stroke="none">
<path d="M4365 9074 c-16 -2 -86 -9 -155 -15 -162 -14 -455 -63 -596 -99 -273
-71 -555 -232 -759 -435 -159 -158 -277 -338 -371 -565 -139 -339 -195 -463
-291 -640 -326 -603 -749 -1112 -1288 -1547 -224 -180 -365 -353 -475 -578
-174 -356 -210 -619 -150 -1088 88 -687 359 -1381 763 -1955 423 -601 1001
-1102 1642 -1423 146 -73 236 -94 369 -85 266 18 506 204 587 456 30 91 37
261 15 355 -26 110 -76 203 -156 288 -134 144 -265 205 -455 214 -98 5 -123 2
-225 -23 -317 -79 -590 5 -779 238 -63 78 -106 165 -132 269 -18 69 -20 103
-16 208 7 204 61 327 206 471 130 129 263 190 462 211 163 16 260 61 357 163
93 98 132 211 132 384 0 122 22 216 75 327 104 215 268 359 500 437 62 20 88
23 230 23 147 -1 167 -3 240 -28 125 -42 227 -107 330 -211 78 -78 98 -106
143 -196 71 -145 86 -207 86 -360 0 -135 -14 -206 -61 -314 -84 -190 -218
-328 -404 -415 -111 -52 -182 -68 -354 -80 -194 -13 -282 -48 -382 -153 -92
-98 -152 -260 -138 -373 40 -327 343 -525 651 -424 69 22 115 51 206 128 284
243 697 126 802 -228 18 -62 21 -184 5 -251 -29 -125 -124 -248 -240 -309 -91
-49 -147 -61 -294 -61 -203 0 -322 -41 -440 -151 -80 -75 -121 -138 -151 -234
-29 -90 -33 -228 -9 -318 62 -239 294 -416 545 -417 90 0 171 23 265 76 170
95 465 235 577 273 140 48 395 113 528 135 168 27 334 37 587 34 258 -3 300 2
433 44 99 32 191 81 353 190 636 429 1136 1003 1482 1703 125 255 174 377 264
664 183 583 235 1242 150 1885 -45 337 -131 669 -264 1011 -93 240 -156 349
-251 433 -77 69 -147 104 -292 146 -161 48 -226 72 -351 136 -396 198 -699
503 -896 903 -48 96 -79 184 -145 402 -40 132 -124 243 -244 323 -169 113
-681 293 -1043 366 -153 32 -379 63 -547 76 -118 9 -560 12 -631 4z m1718
-2313 c89 -23 220 -82 300 -135 121 -80 238 -220 304 -364 174 -375 67 -825
-257 -1084 -83 -65 -261 -151 -365 -174 -107 -24 -283 -24 -390 0 -83 18 -274
104 -335 150 -118 89 -227 224 -289 358 -56 118 -71 185 -78 333 -12 276 65
473 267 676 94 94 116 111 208 157 112 56 202 87 297 102 86 13 247 4 338 -19z"/>
</g>
</svg>
